<svg width="540" height="341" viewBox="0 0 540 341" fill="none" xmlns="http://www.w3.org/2000/svg">
<path d="M0 295.721H540V295.971H0V295.721Z" fill="#E0E0E0"/>
<path d="M132.127 306.311H169.279V306.561H132.127V306.311Z" fill="#E0E0E0"/>
<path d="M420.078 306.43H440.986V306.68H420.078V306.43Z" fill="#E0E0E0"/>
<path d="M268.92 305.85H311.299V306.1H268.92V305.85Z" fill="#E0E0E0"/>
<path d="M312.379 302.289H331.322V302.539H312.379V302.289Z" fill="#E0E0E0"/>
<path d="M81.4759 302.42H138.705V302.67H81.4759V302.42Z" fill="#E0E0E0"/>
<path d="M65.546 170.551C78.8301 151.821 66.7017 131.691 68.7213 110.851C70.7409 90.0107 92.1248 85.4707 88.0748 67.8507C83.3876 47.3707 95.8833 27.7207 110.042 27.7207C124.201 27.7207 136.686 47.3207 131.998 67.8207C127.948 85.4707 149.278 90.0207 151.352 110.821C153.426 131.621 141.243 151.821 154.538 170.521C167.833 189.221 164.334 214.051 156.849 226.361C154.858 229.627 152.459 232.665 149.7 235.411C144.627 240.453 138.488 244.473 131.664 247.223C124.84 249.972 117.478 251.391 110.037 251.391C102.595 251.391 95.2328 249.972 88.409 247.223C81.5853 244.473 75.446 240.453 70.3737 235.411C67.6216 232.662 65.2257 229.624 63.2348 226.361C55.7396 214.081 52.2512 189.321 65.546 170.551Z" fill="#E0E0E0"/>
<path d="M110.04 184.76C109.158 184.76 108.285 184.921 107.47 185.233C106.654 185.546 105.914 186.004 105.29 186.582C104.666 187.159 104.172 187.845 103.834 188.599C103.496 189.354 103.323 190.163 103.323 190.98V295.72H116.758V190.98C116.758 190.163 116.584 189.354 116.246 188.599C115.909 187.845 115.414 187.159 114.79 186.582C114.167 186.004 113.426 185.546 112.611 185.233C111.796 184.921 110.922 184.76 110.04 184.76Z" fill="#F0F0F0"/>
<path d="M194.497 295.72H212.76V190.99C212.754 188.745 211.788 186.593 210.074 185.006C208.36 183.419 206.037 182.525 203.612 182.52C201.188 182.525 198.864 183.419 197.15 185.006C195.436 186.593 194.47 188.745 194.465 190.99L194.497 295.72Z" fill="#E0E0E0"/>
<path d="M203.645 267.471C172.527 267.471 147.301 244.114 147.301 215.301C147.301 186.488 172.527 163.131 203.645 163.131C234.762 163.131 259.988 186.488 259.988 215.301C259.988 244.114 234.762 267.471 203.645 267.471Z" fill="#F0F0F0"/>
<path d="M137.438 199.645C134.481 188.625 141.733 177.472 153.635 174.735C165.536 171.997 177.581 178.712 180.538 189.732C183.494 200.752 176.242 211.905 164.341 214.642C152.439 217.379 140.394 210.665 137.438 199.645Z" fill="#F0F0F0"/>
<path d="M236.249 184.469C235.082 177.835 239.944 171.581 247.108 170.501C254.273 169.421 261.027 173.923 262.194 180.557C263.361 187.191 258.499 193.444 251.334 194.525C244.169 195.605 237.415 191.103 236.249 184.469Z" fill="#F0F0F0"/>
<path d="M234.921 184.76C229.827 184.76 225.698 180.936 225.698 176.22C225.698 171.503 229.827 167.68 234.921 167.68C240.015 167.68 244.145 171.503 244.145 176.22C244.145 180.936 240.015 184.76 234.921 184.76Z" fill="#F0F0F0"/>
<path d="M332.358 25.46C326.883 10.59 331.278 0 344.638 0C353.04 0 363.462 4.17 373.614 10.95C374.759 7.08 377.988 4.77 383.183 4.77C392.331 4.77 404.934 11.93 414.816 22.03C417.598 19.5825 421.282 18.2061 425.119 18.18C433.878 17.72 444.473 21.84 453.685 28.53C454.147 27.9318 454.756 27.4445 455.463 27.1087C456.169 26.773 456.952 26.5986 457.746 26.6C462.79 26.34 469.626 30.5 473.007 35.88C473.212 36.21 473.395 36.54 473.59 36.88H329.701C329.269 32.18 330.166 28.26 332.358 25.46Z" fill="#F0F0F0"/>
<path d="M331.916 115.75C329.238 108.49 331.365 103.32 337.91 103.32C342.025 103.32 347.112 105.32 352.069 108.67C352.336 107.737 352.953 106.923 353.81 106.373C354.667 105.823 355.708 105.574 356.745 105.67C361.206 105.67 367.362 109.17 372.2 114.11C373.556 112.911 375.357 112.238 377.233 112.23C381.553 112 386.683 114.01 391.186 117.28C391.405 116.991 391.694 116.754 392.029 116.587C392.365 116.42 392.739 116.329 393.12 116.32C395.582 116.19 398.919 118.22 400.572 120.85L400.863 121.33H330.577C330.283 119.382 330.759 117.4 331.916 115.75Z" fill="#F0F0F0"/>
<path d="M169.809 60.8099C170.364 60.7377 170.923 60.7009 171.483 60.6999C170.965 53.4499 173.956 48.8099 180.361 48.8099C184.972 48.8099 190.642 51.2298 196.41 55.3198C194.757 41.2398 200.049 32.0898 212.037 32.0898C221.692 32.0898 233.929 38.0898 246.014 47.7498C247.094 42.2298 250.636 38.9098 256.62 38.9098C267.128 38.9098 282.064 49.1499 294.042 63.5899C295.406 61.9248 297.157 60.5638 299.164 59.6069C301.171 58.6499 303.384 58.1213 305.641 58.0599C315.642 57.4099 328.072 63.2899 339.121 72.8699C339.523 72.062 340.163 71.3755 340.967 70.889C341.771 70.4026 342.707 70.136 343.668 70.1199C349.143 69.7599 356.628 75.0498 361.066 82.1199H161.007C156.309 71.3998 160.046 62.0199 169.809 60.8099Z" fill="#F0F0F0"/>
<path d="M310.001 340.88C202.918 340.88 116.111 335.812 116.111 329.56C116.111 323.308 202.918 318.24 310.001 318.24C417.083 318.24 503.891 323.308 503.891 329.56C503.891 335.812 417.083 340.88 310.001 340.88Z" fill="#F5F5F5"/>
<path d="M511.141 63.8809L283.171 96.7009L252.581 127.571L511.141 63.8809Z" fill="#0066FF"/>
<path opacity="0.6" d="M511.141 63.8809L283.171 96.7009L252.581 127.571L511.141 63.8809Z" fill="white"/>
<path d="M511.141 63.8809L283.171 96.7009L293.751 141.341L511.141 63.8809Z" fill="#0066FF"/>
<path opacity="0.2" d="M511.141 63.8809L283.171 96.7009L293.751 141.341L511.141 63.8809Z" fill="black"/>
<path d="M298.431 12.2L285.201 74.2C284.857 75.8189 285.169 77.5083 286.069 78.8975C286.969 80.2866 288.383 81.2621 290.001 81.61L408.081 106.81C409.7 107.151 411.388 106.838 412.776 105.939C414.165 105.039 415.141 103.627 415.491 102.01L428.731 40.01C429.072 38.3898 428.757 36.7005 427.856 35.3118C426.955 33.923 425.54 32.9479 423.921 32.6L305.841 7.39997C304.221 7.05883 302.531 7.37342 301.143 8.27489C299.754 9.17635 298.779 10.5913 298.431 12.21V12.2Z" fill="#0066FF"/>
<path opacity="0.4" d="M298.431 12.2L285.201 74.2C284.857 75.8189 285.169 77.5083 286.069 78.8975C286.969 80.2866 288.383 81.2621 290.001 81.61L408.081 106.81C409.7 107.151 411.388 106.838 412.776 105.939C414.165 105.039 415.141 103.627 415.491 102.01L428.731 40.01C429.072 38.3898 428.757 36.7005 427.856 35.3118C426.955 33.923 425.54 32.9479 423.921 32.6L305.841 7.39997C304.221 7.05883 302.531 7.37342 301.143 8.27489C299.754 9.17635 298.779 10.5913 298.431 12.21V12.2Z" fill="black"/>
<path d="M301.34 8.14041L340.79 56.5704C344.449 61.0605 349.531 64.1672 355.195 65.3764C360.86 66.5857 366.767 65.8251 371.94 63.2204L427.73 35.1204C426.828 33.8238 425.466 32.9193 423.92 32.5904L305.84 7.39041C304.3 7.06246 302.692 7.33044 301.34 8.14041Z" fill="#0066FF"/>
<path d="M511.141 63.8809L323.111 108.571L293.751 141.341L511.141 63.8809Z" fill="#0066FF"/>
<path opacity="0.6" d="M511.141 63.8809L323.111 108.571L293.751 141.341L511.141 63.8809Z" fill="white"/>
<path d="M442.551 106.955L443.057 107.818L422.132 120.075L421.627 119.212L442.551 106.955Z" fill="#0066FF"/>
<path d="M412.389 124.616L412.895 125.479L405.37 129.886L404.865 129.023L412.389 124.616Z" fill="#0066FF"/>
<path d="M511.141 63.8809L323.111 108.571L359.661 152.621L511.141 63.8809Z" fill="#0066FF"/>
<path d="M259.641 168.58C259.895 168.581 260.146 168.533 260.381 168.44L291.001 156.32C291.491 156.123 291.883 155.74 292.092 155.254C292.3 154.769 292.308 154.221 292.114 153.73C291.92 153.239 291.539 152.844 291.055 152.633C290.572 152.421 290.024 152.409 289.531 152.6L258.901 164.72C258.468 164.891 258.108 165.208 257.884 165.617C257.659 166.025 257.584 166.499 257.672 166.957C257.76 167.414 258.005 167.827 258.364 168.123C258.724 168.42 259.175 168.581 259.641 168.58Z" fill="#0066FF"/>
<path opacity="0.3" d="M259.641 168.58C259.895 168.581 260.146 168.533 260.381 168.44L291.001 156.32C291.491 156.123 291.883 155.74 292.092 155.254C292.3 154.769 292.308 154.221 292.114 153.73C291.92 153.239 291.539 152.844 291.055 152.633C290.572 152.421 290.024 152.409 289.531 152.6L258.901 164.72C258.468 164.891 258.108 165.208 257.884 165.617C257.659 166.025 257.584 166.499 257.672 166.957C257.76 167.414 258.005 167.827 258.364 168.123C258.724 168.42 259.175 168.581 259.641 168.58Z" fill="black"/>
<path d="M261.451 151.02C261.702 151.018 261.95 150.967 262.181 150.87L278.631 144.32C278.877 144.225 279.101 144.082 279.292 143.899C279.482 143.717 279.635 143.498 279.741 143.257C279.846 143.015 279.903 142.755 279.908 142.491C279.913 142.227 279.865 141.965 279.768 141.72C279.671 141.475 279.527 141.251 279.343 141.062C279.159 140.873 278.94 140.722 278.698 140.617C278.455 140.513 278.195 140.458 277.931 140.455C277.667 140.452 277.406 140.501 277.161 140.6L260.711 147.12C260.218 147.314 259.822 147.696 259.61 148.181C259.398 148.667 259.388 149.217 259.581 149.71C259.722 150.093 259.976 150.424 260.311 150.658C260.645 150.892 261.043 151.018 261.451 151.02Z" fill="#0066FF"/>
<path opacity="0.5" d="M261.451 151.02C261.702 151.018 261.95 150.967 262.181 150.87L278.631 144.32C278.877 144.225 279.101 144.082 279.292 143.899C279.482 143.717 279.635 143.498 279.741 143.257C279.846 143.015 279.903 142.755 279.908 142.491C279.913 142.227 279.865 141.965 279.768 141.72C279.671 141.475 279.527 141.251 279.343 141.062C279.159 140.873 278.94 140.722 278.698 140.617C278.455 140.513 278.195 140.458 277.931 140.455C277.667 140.452 277.406 140.501 277.161 140.6L260.711 147.12C260.218 147.314 259.822 147.696 259.61 148.181C259.398 148.667 259.388 149.217 259.581 149.71C259.722 150.093 259.976 150.424 260.311 150.658C260.645 150.892 261.043 151.018 261.451 151.02Z" fill="white"/>
<path d="M295.841 168.32C296.091 168.317 296.338 168.27 296.571 168.18L326.441 156.32C326.687 156.225 326.912 156.082 327.102 155.899C327.293 155.717 327.445 155.498 327.551 155.257C327.657 155.015 327.714 154.755 327.718 154.491C327.723 154.227 327.676 153.965 327.579 153.72C327.482 153.475 327.337 153.251 327.154 153.062C326.97 152.873 326.751 152.722 326.508 152.617C326.266 152.513 326.005 152.458 325.742 152.455C325.478 152.452 325.216 152.501 324.971 152.6L295.101 164.42C294.668 164.591 294.308 164.908 294.084 165.317C293.859 165.725 293.785 166.199 293.872 166.657C293.96 167.114 294.205 167.527 294.564 167.823C294.924 168.12 295.376 168.281 295.841 168.28V168.32Z" fill="#0066FF"/>
<path opacity="0.3" d="M295.841 168.32C296.091 168.317 296.338 168.27 296.571 168.18L326.441 156.32C326.687 156.225 326.912 156.082 327.102 155.899C327.293 155.717 327.445 155.498 327.551 155.257C327.657 155.015 327.714 154.755 327.718 154.491C327.723 154.227 327.676 153.965 327.579 153.72C327.482 153.475 327.337 153.251 327.154 153.062C326.97 152.873 326.751 152.722 326.508 152.617C326.266 152.513 326.005 152.458 325.742 152.455C325.478 152.452 325.216 152.501 324.971 152.6L295.101 164.42C294.668 164.591 294.308 164.908 294.084 165.317C293.859 165.725 293.785 166.199 293.872 166.657C293.96 167.114 294.205 167.527 294.564 167.823C294.924 168.12 295.376 168.281 295.841 168.28V168.32Z" fill="black"/>
<path d="M187.7 78.1387C185.05 83.3087 182.62 88.4887 180.31 93.7887C178 99.0887 175.85 104.459 173.97 110.089L173.29 112.219C173.17 112.599 173 113.219 172.9 113.659C172.8 114.099 172.71 114.599 172.66 115.019C172.431 116.632 172.314 118.259 172.31 119.889C172.295 122.894 172.435 125.898 172.73 128.889C173.289 134.678 174.197 140.429 175.45 146.109L180.94 145.499C181.01 139.869 181.06 134.179 181.26 128.629C181.35 125.869 181.51 123.099 181.79 120.499C181.917 119.278 182.117 118.066 182.39 116.869C182.44 116.589 182.52 116.379 182.58 116.149C182.64 115.919 182.7 115.839 182.8 115.539L183.56 113.649C185.65 108.589 188 103.489 190.4 98.4087L197.66 83.1687L187.7 78.1387Z" fill="#E4897B"/>
<path d="M180.86 143.738L183.42 148.528L175.24 150.808C175.24 150.808 173.68 146.958 175.54 143.918L180.86 143.738Z" fill="#E4897B"/>
<path d="M186.551 155.429L179.031 156.029L175.241 150.809L183.421 148.529L186.551 155.429Z" fill="#E4897B"/>
<path d="M222.129 43.5787C222.239 44.1687 222.649 44.5787 223.029 44.4987C223.409 44.4187 223.619 43.8887 223.499 43.3087C223.379 42.7287 222.979 42.3087 222.599 42.3887C222.219 42.4687 221.999 42.9987 222.129 43.5787Z" fill="#263238"/>
<path d="M222.591 44.5801C223.647 46.2161 224.922 47.6999 226.381 48.9901C226.04 49.3524 225.625 49.6365 225.164 49.823C224.703 50.0094 224.208 50.0937 223.711 50.0701L222.591 44.5801Z" fill="#DE5753"/>
<path d="M219.35 40.7882C219.444 40.7858 219.534 40.7463 219.6 40.6782C219.887 40.3496 220.248 40.0933 220.653 39.93C221.057 39.7667 221.495 39.701 221.93 39.7382C222.013 39.739 222.093 39.7104 222.157 39.6575C222.221 39.6045 222.263 39.5307 222.278 39.4491C222.292 39.3675 222.277 39.2834 222.235 39.2118C222.194 39.1403 222.128 39.0858 222.05 39.0582C221.494 38.9878 220.929 39.0559 220.405 39.2565C219.882 39.4572 219.416 39.7841 219.05 40.2082C218.986 40.2736 218.95 40.3616 218.95 40.4532C218.95 40.5448 218.986 40.6328 219.05 40.6982C219.09 40.7349 219.138 40.762 219.189 40.7776C219.241 40.7931 219.296 40.7968 219.35 40.7882Z" fill="#263238"/>
<path d="M205.589 51.75C206.639 57.13 207.689 66.97 203.929 70.56C203.929 70.56 205.399 76.01 215.389 76.01C226.389 76.01 220.629 70.56 220.629 70.56C214.629 69.13 214.799 64.68 215.839 60.51L205.589 51.75Z" fill="#E4897B"/>
<path d="M202.421 73.9485C201.631 71.3185 200.761 68.3085 202.561 67.3585C204.561 66.3585 215.431 65.2585 219.181 67.2085C222.931 69.1585 221.861 74.5085 221.861 74.5085L202.421 73.9485Z" fill="#263238"/>
<path d="M179.36 323.318C179.671 323.36 179.986 323.338 180.288 323.256C180.591 323.174 180.873 323.032 181.12 322.838C181.207 322.717 181.254 322.572 181.254 322.423C181.254 322.274 181.207 322.129 181.12 322.008C181.063 321.905 180.984 321.815 180.889 321.744C180.794 321.673 180.686 321.624 180.57 321.598C179.49 321.358 177.47 322.738 177.38 322.798C177.354 322.82 177.334 322.848 177.322 322.879C177.31 322.911 177.306 322.945 177.31 322.978C177.316 323.011 177.331 323.041 177.354 323.064C177.378 323.087 177.408 323.103 177.44 323.108C178.071 323.244 178.714 323.315 179.36 323.318ZM180.28 321.918H180.49C180.558 321.932 180.622 321.961 180.677 322.003C180.732 322.044 180.778 322.097 180.81 322.158C180.97 322.438 180.87 322.558 180.81 322.598C180.5 323.018 179 323.018 177.9 322.838C178.617 322.365 179.43 322.058 180.28 321.938V321.918Z" fill="#0066FF"/>
<path d="M177.48 323.14H177.56C178.32 322.72 179.79 321.14 179.64 320.3C179.614 320.17 179.544 320.053 179.442 319.969C179.34 319.885 179.212 319.84 179.08 319.84C178.948 319.826 178.815 319.838 178.688 319.875C178.561 319.913 178.442 319.976 178.34 320.06C177.49 320.76 177.34 322.88 177.34 322.97C177.336 323.001 177.341 323.033 177.355 323.062C177.37 323.09 177.392 323.114 177.42 323.13C177.439 323.137 177.459 323.141 177.48 323.14ZM178.96 320.14H179C179.23 320.14 179.25 320.28 179.26 320.32C179.35 320.81 178.41 322.02 177.66 322.59C177.71 321.754 178.01 320.953 178.52 320.29C178.587 320.237 178.664 320.199 178.747 320.176C178.829 320.154 178.915 320.148 179 320.16L178.96 320.14Z" fill="#0066FF"/>
<path d="M223.47 323.319C224.41 323.319 225.32 323.189 225.63 322.769C225.708 322.658 225.75 322.525 225.75 322.389C225.75 322.253 225.708 322.121 225.63 322.009C225.569 321.907 225.488 321.817 225.392 321.747C225.295 321.676 225.186 321.626 225.07 321.599C223.86 321.269 221.28 322.729 221.17 322.789C221.14 322.808 221.117 322.835 221.103 322.867C221.089 322.899 221.084 322.935 221.09 322.969C221.095 323.004 221.112 323.037 221.137 323.062C221.162 323.087 221.195 323.103 221.23 323.109C221.968 323.248 222.718 323.319 223.47 323.319ZM224.64 321.899C224.749 321.883 224.86 321.883 224.97 321.899C225.04 321.913 225.107 321.942 225.165 321.983C225.224 322.024 225.273 322.078 225.31 322.139C225.44 322.359 225.39 322.459 225.31 322.519C224.98 322.979 223.12 323.009 221.74 322.819C222.639 322.334 223.624 322.028 224.64 321.919V321.899Z" fill="#0066FF"/>
<path d="M221.251 323.14H221.321C222.211 322.75 223.961 321.14 223.831 320.33C223.831 320.13 223.661 319.89 223.181 319.84C223.003 319.813 222.82 319.826 222.647 319.878C222.474 319.93 222.315 320.019 222.181 320.14C221.241 320.9 221.051 322.88 221.041 322.97C221.037 323.001 221.042 323.032 221.054 323.06C221.066 323.088 221.086 323.112 221.111 323.13C221.132 323.142 221.156 323.148 221.18 323.15C221.204 323.152 221.228 323.148 221.251 323.14ZM223.041 320.14H223.151C223.461 320.14 223.481 320.3 223.491 320.34C223.571 320.84 222.371 322.09 221.491 322.63C221.577 321.79 221.928 320.999 222.491 320.37C222.634 320.247 222.813 320.173 223.001 320.16L223.041 320.14Z" fill="#0066FF"/>
<path d="M213.17 322.959H220.52L221.25 305.949H213.9L213.17 322.959Z" fill="#E4897B"/>
<path d="M169.06 322.959H176.41L180.1 305.949H172.76L169.06 322.959Z" fill="#E4897B"/>
<path d="M176.931 322.109H168.681C168.533 322.11 168.391 322.162 168.276 322.254C168.162 322.347 168.082 322.476 168.051 322.619L166.601 329.149C166.567 329.308 166.571 329.473 166.61 329.63C166.649 329.788 166.723 329.935 166.827 330.06C166.931 330.185 167.062 330.285 167.209 330.352C167.357 330.42 167.518 330.453 167.681 330.449C170.561 330.399 171.961 330.229 175.591 330.229C177.821 330.229 182.421 330.469 185.511 330.469C188.601 330.469 188.991 327.469 187.731 327.139C182.071 325.899 179.941 324.189 178.131 322.569C177.802 322.272 177.374 322.108 176.931 322.109Z" fill="#263238"/>
<path d="M220.469 322.109H212.469C212.322 322.11 212.179 322.161 212.065 322.254C211.95 322.347 211.871 322.476 211.839 322.619L210.389 329.149C210.354 329.307 210.356 329.47 210.393 329.627C210.431 329.784 210.503 329.931 210.605 330.056C210.707 330.181 210.836 330.281 210.982 330.349C211.128 330.417 211.288 330.452 211.449 330.449C214.339 330.399 218.519 330.229 222.159 330.229C226.409 330.229 230.089 330.469 235.079 330.469C238.079 330.469 238.929 327.469 237.669 327.139C231.919 325.879 227.229 325.749 222.259 322.689C221.73 322.329 221.109 322.128 220.469 322.109Z" fill="#263238"/>
<path d="M224 83.4595C230.143 82.9836 236.255 82.1724 242.31 81.0295C245.31 80.4495 248.37 79.7995 251.41 78.9795C254.526 78.182 257.586 77.1799 260.57 75.9795C261.34 75.6595 262.12 75.3095 262.89 74.9795C263.756 74.5525 264.592 74.0646 265.39 73.5195C266.83 72.5695 268.07 71.5795 269.3 70.5995C271.75 68.5995 274.02 66.5995 276.3 64.5495C280.77 60.4095 285.01 56.1295 289.1 51.6295L285.42 47.5195L270.91 57.9495C268.52 59.6695 266.1 61.3595 263.72 62.9495C262.54 63.7395 261.33 64.4795 260.22 65.1095C259.756 65.3742 259.274 65.6081 258.78 65.8095C258.19 66.0395 257.59 66.2695 256.96 66.4895C251.555 68.1537 246.028 69.3909 240.43 70.1895C234.72 71.0895 228.82 71.8295 223.12 72.4295L224 83.4595Z" fill="#E4897B"/>
<path d="M190.779 72.2198C183.889 73.7998 176.929 93.9298 176.929 93.9298L191.099 104.1C191.099 104.1 195.099 94.7198 198.959 86.5198C202.999 77.9298 197.819 70.6098 190.779 72.2198Z" fill="#0066FF"/>
<path opacity="0.4" d="M190.779 72.2198C183.889 73.7998 176.929 93.9298 176.929 93.9298L191.099 104.1C191.099 104.1 195.099 94.7198 198.959 86.5198C202.999 77.9298 197.819 70.6098 190.779 72.2198Z" fill="black"/>
<path d="M194.751 83.2188L197.561 89.5088C194.651 95.7888 191.991 102.009 191.281 103.669C191.381 96.2388 192.791 87.0187 194.751 83.2188Z" fill="#0066FF"/>
<path opacity="0.6" d="M194.751 83.2188L197.561 89.5088C194.651 95.7888 191.991 102.009 191.281 103.669C191.381 96.2388 192.791 87.0187 194.751 83.2188Z" fill="black"/>
<path d="M231.929 72.5985C231.929 72.5985 239.749 81.4285 232.369 136.099H193.079C192.799 130.099 196.589 100.639 190.779 72.2185C195.122 71.3822 199.515 70.8278 203.929 70.5585C209.491 70.2383 215.067 70.2383 220.629 70.5585C224.443 70.9428 228.222 71.6249 231.929 72.5985Z" fill="#0066FF"/>
<path opacity="0.4" d="M231.929 72.5985C231.929 72.5985 239.749 81.4285 232.369 136.099H193.079C192.799 130.099 196.589 100.639 190.779 72.2185C195.122 71.3822 199.515 70.8278 203.929 70.5585C209.491 70.2383 215.067 70.2383 220.629 70.5585C224.443 70.9428 228.222 71.6249 231.929 72.5985Z" fill="black"/>
<path d="M234.84 83.2188C235.1 85.2887 235.3 87.7388 235.43 90.6288C231.55 89.4642 227.863 87.7321 224.49 85.4888L234.84 83.2188Z" fill="#0066FF"/>
<path opacity="0.6" d="M234.84 83.2188C235.1 85.2887 235.3 87.7388 235.43 90.6288C231.55 89.4642 227.863 87.7321 224.49 85.4888L234.84 83.2188Z" fill="black"/>
<path d="M218 84.3184C223.26 88.9784 243.34 88.5084 243.34 88.5084L244 69.0684C237.219 70.0342 230.379 70.5287 223.53 70.5484C212.34 70.3184 212.26 79.1784 218 84.3184Z" fill="#0066FF"/>
<path opacity="0.4" d="M218 84.3184C223.26 88.9784 243.34 88.5084 243.34 88.5084L244 69.0684C237.219 70.0342 230.379 70.5287 223.53 70.5484C212.34 70.3184 212.26 79.1784 218 84.3184Z" fill="black"/>
<path d="M285.229 47.5599L290.229 41.6699L295.619 47.6699C295.619 47.6699 292.299 53.2499 287.029 52.3699L285.229 47.5599Z" fill="#E4897B"/>
<path d="M297.39 34.7988L299.33 42.4888L295.66 47.6288L290.27 41.6688L297.39 34.7988Z" fill="#E4897B"/>
<path d="M221.25 305.959L220.87 314.719H213.52L213.9 305.959H221.25Z" fill="#CE6F64"/>
<path d="M172.75 305.959H180.1L178.2 314.719H170.85L172.75 305.959Z" fill="#CE6F64"/>
<path d="M216.831 36.3191C223.421 33.3191 225.501 19.9891 206.541 23.3191C206.541 23.3191 209.401 26.4791 203.601 28.4791C197.801 30.4791 202.651 42.8291 216.831 36.3191Z" fill="#263238"/>
<path d="M202.509 46.3193C204.399 53.3193 205.139 57.5793 209.509 60.5093C216.049 64.9093 224.179 59.8593 224.439 52.3893C224.669 45.6793 221.539 35.2893 213.989 33.8693C212.323 33.5426 210.601 33.6482 208.986 34.1762C207.372 34.7042 205.921 35.6369 204.769 36.8854C203.618 38.1339 202.806 39.6565 202.41 41.3079C202.015 42.9594 202.049 44.6847 202.509 46.3193Z" fill="#E4897B"/>
<path d="M206.801 26.8183C202.311 29.3183 196.231 30.8183 196.801 34.3783C197.551 38.7283 193.131 36.0083 194.161 42.4783C194.831 46.7083 202.631 59.5283 208.161 58.9083C216.421 57.9083 215.371 45.3483 215.401 38.7283C215.421 34.8183 215.601 21.8883 206.801 26.8183Z" fill="#263238"/>
<path d="M216.39 32.4297C218.39 32.8997 221.04 44.4297 213.29 45.4897C204.38 46.6997 216.39 32.4297 216.39 32.4297Z" fill="#263238"/>
<path d="M216.189 36.5197C218.639 36.7397 224.189 33.7897 223.509 29.3497C223.509 29.3197 219.999 34.5397 216.189 36.5197Z" fill="#263238"/>
<path d="M212.55 46.4092C213.302 48.058 214.578 49.4117 216.18 50.2592C218.29 51.3592 219.48 49.7592 219 47.6392C218.57 45.7392 216.95 42.8692 214.78 42.6392C212.61 42.4092 211.68 44.4092 212.55 46.4092Z" fill="#E4897B"/>
<path d="M201.551 38.3183C200.056 37.6698 198.746 36.6607 197.737 35.3815C196.729 34.1022 196.053 32.5928 195.771 30.9883C195.771 30.9883 192.471 40.1583 201.551 38.3183Z" fill="#263238"/>
<path d="M193.21 38.1685C193.906 37.7011 194.707 37.4136 195.541 37.3316C196.375 37.2495 197.217 37.3756 197.99 37.6985C197.99 37.6985 194.91 33.7085 193.21 38.1685Z" fill="#263238"/>
<path d="M218.43 136.099C218.43 136.099 210.09 192.239 205.52 213.269C200.52 236.269 181.62 313.029 181.62 313.029H168.17C168.17 313.029 180.62 238.159 183.48 215.319C186.58 190.569 193.08 136.059 193.08 136.059L218.43 136.099Z" fill="#0066FF"/>
<path opacity="0.5" d="M218.43 136.099C218.43 136.099 210.09 192.239 205.52 213.269C200.52 236.269 181.62 313.029 181.62 313.029H168.17C168.17 313.029 180.62 238.159 183.48 215.319C186.58 190.569 193.08 136.059 193.08 136.059L218.43 136.099Z" fill="white"/>
<path d="M183.77 308.068C183.83 308.068 182.38 313.238 182.38 313.238H167.24L167.52 308.628L183.77 308.068Z" fill="#0066FF"/>
<path opacity="0.1" d="M183.77 308.068C183.83 308.068 182.38 313.238 182.38 313.238H167.24L167.52 308.628L183.77 308.068Z" fill="black"/>
<path d="M213.16 156.098C203.52 157.988 204.54 193.938 205.7 212.428C208.48 199.358 212.55 174.208 215.33 156.358C214.658 156.027 213.892 155.935 213.16 156.098Z" fill="#0066FF"/>
<path opacity="0.4" d="M213.16 156.098C203.52 157.988 204.54 193.938 205.7 212.428C208.48 199.358 212.55 174.208 215.33 156.358C214.658 156.027 213.892 155.935 213.16 156.098Z" fill="white"/>
<path d="M232.371 136.1C232.371 136.1 233.371 191.02 232.581 213.43C231.751 236.73 223.581 313.03 223.581 313.03H211.141C211.141 313.03 210.681 238.09 210.141 215.21C209.531 190.26 206.521 136.1 206.521 136.1H232.371Z" fill="#0066FF"/>
<path opacity="0.5" d="M232.371 136.1C232.371 136.1 233.371 191.02 232.581 213.43C231.751 236.73 223.581 313.03 223.581 313.03H211.141C211.141 313.03 210.681 238.09 210.141 215.21C209.531 190.26 206.521 136.1 206.521 136.1H232.371Z" fill="white"/>
<path d="M221 304.089C221.03 304.089 221.059 304.078 221.081 304.058C221.104 304.037 221.117 304.009 221.12 303.979C223.32 282.859 228.49 231.759 229.12 213.429C229.79 194.719 229.18 152.739 228.98 140.319C228.98 140.287 228.967 140.257 228.945 140.234C228.922 140.212 228.892 140.199 228.86 140.199C228.827 140.199 228.795 140.211 228.771 140.234C228.747 140.256 228.732 140.286 228.73 140.319C228.93 152.739 229.54 194.719 228.87 213.419C228.22 231.749 223.05 282.829 220.87 303.949C220.869 303.983 220.881 304.016 220.904 304.042C220.926 304.067 220.956 304.084 220.99 304.089H221Z" fill="#0066FF"/>
<path opacity="0.4" d="M221 304.089C221.03 304.089 221.059 304.078 221.081 304.058C221.104 304.037 221.117 304.009 221.12 303.979C223.32 282.859 228.49 231.759 229.12 213.429C229.79 194.719 229.18 152.739 228.98 140.319C228.98 140.287 228.967 140.257 228.945 140.234C228.922 140.212 228.892 140.199 228.86 140.199C228.827 140.199 228.795 140.211 228.771 140.234C228.747 140.256 228.732 140.286 228.73 140.319C228.93 152.739 229.54 194.719 228.87 213.419C228.22 231.749 223.05 282.829 220.87 303.949C220.869 303.983 220.881 304.016 220.904 304.042C220.926 304.067 220.956 304.084 220.99 304.089H221Z" fill="white"/>
<path d="M226 308.068C226.05 308.068 225.29 313.238 225.29 313.238H210.16L209.75 308.628L226 308.068Z" fill="#0066FF"/>
<path opacity="0.1" d="M226 308.068C226.05 308.068 225.29 313.238 225.29 313.238H210.16L209.75 308.628L226 308.068Z" fill="black"/>
</svg>
